<svg width="66" height="49" viewBox="0 0 66 49" fill="none" xmlns="http://www.w3.org/2000/svg">
<g filter="url(#filter0_dd_83_1445)">
<rect x="9.84285" y="4.96973" width="46.6143" height="30.0304" rx="5.37857" fill="white"/>
<rect x="9.7308" y="4.85767" width="46.8384" height="30.2545" rx="5.49062" stroke="#D6DCE5" stroke-width="0.224107"/>
<path d="M24.9199 16.0512C25.2309 15.6622 25.4419 15.1399 25.3863 14.6062C24.931 14.6288 24.3755 14.9065 24.0538 15.2958C23.765 15.6292 23.5094 16.1734 23.5761 16.6847C24.0871 16.729 24.5977 16.4293 24.9199 16.0512Z" fill="#000008"/>
<path d="M25.3805 16.7845C24.6383 16.7403 24.0073 17.2058 23.6529 17.2058C23.2983 17.2058 22.7556 16.8068 22.1686 16.8176C21.4045 16.8288 20.6956 17.2608 20.3079 17.9478C19.5104 19.3223 20.0975 21.3611 20.8729 22.4805C21.2495 23.0343 21.7034 23.6441 22.3014 23.6222C22.8664 23.6 23.0879 23.2563 23.7747 23.2563C24.461 23.2563 24.6605 23.6222 25.2586 23.6111C25.8789 23.6 26.2667 23.057 26.6433 22.5027C27.0753 21.8714 27.2521 21.2618 27.2633 21.2283C27.2521 21.2172 26.0672 20.7627 26.0562 19.3996C26.045 18.2583 26.9865 17.7155 27.0308 17.6818C26.4992 16.8955 25.6685 16.8068 25.3805 16.7845Z" fill="#000008"/>
<path d="M31.8425 15.24C33.4556 15.24 34.5788 16.3519 34.5788 17.9707C34.5788 19.5954 33.4325 20.713 31.8021 20.713H30.0161V23.5532H28.7258V15.24L31.8425 15.24ZM30.0161 19.6299H31.4967C32.6202 19.6299 33.2596 19.0251 33.2596 17.9765C33.2596 16.9281 32.6202 16.3289 31.5025 16.3289H30.0161V19.6299Z" fill="#000008"/>
<path d="M34.9159 21.8307C34.9159 20.7706 35.7282 20.1196 37.1686 20.0389L38.8277 19.941V19.4744C38.8277 18.8004 38.3725 18.3971 37.6122 18.3971C36.8919 18.3971 36.4425 18.7427 36.3332 19.2843H35.158C35.2271 18.1896 36.1603 17.3831 37.6582 17.3831C39.1273 17.3831 40.0662 18.1609 40.0662 19.3764V23.5532H38.8737V22.5565H38.845C38.4936 23.2306 37.7273 23.6569 36.9324 23.6569C35.7456 23.6569 34.9159 22.9195 34.9159 21.8307ZM38.8277 21.2834V20.8052L37.3355 20.8974C36.5923 20.9493 36.1718 21.2776 36.1718 21.7961C36.1718 22.3261 36.6097 22.6718 37.278 22.6718C38.1478 22.6718 38.8277 22.0726 38.8277 21.2834Z" fill="#000008"/>
<path d="M41.1921 25.7828V24.7745C41.2841 24.7975 41.4915 24.7975 41.5953 24.7975C42.1714 24.7975 42.4825 24.5556 42.6725 23.9335C42.6725 23.9219 42.7821 23.5648 42.7821 23.559L40.593 17.4926H41.9409L43.4735 22.4241H43.4964L45.029 17.4926H46.3424L44.0724 23.87C43.5542 25.3392 42.955 25.8115 41.6991 25.8115C41.5953 25.8115 41.2842 25.8 41.1921 25.7828Z" fill="#000008"/>
</g>
<defs>
<filter id="filter0_dd_83_1445" x="0.654458" y="0.263463" width="64.9911" height="48.4071" filterUnits="userSpaceOnUse" color-interpolation-filters="sRGB">
<feFlood flood-opacity="0" result="BackgroundImageFix"/>
<feColorMatrix in="SourceAlpha" type="matrix" values="0 0 0 0 0 0 0 0 0 0 0 0 0 0 0 0 0 0 127 0" result="hardAlpha"/>
<feOffset dy="0.448214"/>
<feGaussianBlur stdDeviation="2.24107"/>
<feColorMatrix type="matrix" values="0 0 0 0 0.717647 0 0 0 0 0.717647 0 0 0 0 0.717647 0 0 0 0.08 0"/>
<feBlend mode="normal" in2="BackgroundImageFix" result="effect1_dropShadow_83_1445"/>
<feColorMatrix in="SourceAlpha" type="matrix" values="0 0 0 0 0 0 0 0 0 0 0 0 0 0 0 0 0 0 127 0" result="hardAlpha"/>
<feOffset dy="4.48214"/>
<feGaussianBlur stdDeviation="4.48214"/>
<feColorMatrix type="matrix" values="0 0 0 0 0.717647 0 0 0 0 0.717647 0 0 0 0 0.717647 0 0 0 0.08 0"/>
<feBlend mode="normal" in2="effect1_dropShadow_83_1445" result="effect2_dropShadow_83_1445"/>
<feBlend mode="normal" in="SourceGraphic" in2="effect2_dropShadow_83_1445" result="shape"/>
</filter>
</defs>
</svg>
