<svg width="66" height="49" viewBox="0 0 66 49" fill="none" xmlns="http://www.w3.org/2000/svg">
<g filter="url(#filter0_dd_83_1447)">
<rect x="9.45714" y="4.96973" width="46.6143" height="30.0304" rx="5.37857" fill="white"/>
<rect x="9.34508" y="4.85767" width="46.8384" height="30.2545" rx="5.49062" stroke="#D6DCE5" stroke-width="0.224107"/>
<path d="M31.751 23.5838H30.7026V15.4255H33.482C34.1864 15.4255 34.7871 15.6603 35.2786 16.13C35.781 16.5996 36.0321 17.173 36.0321 17.8501C36.0321 18.5436 35.781 19.117 35.2786 19.5811C34.7926 20.0453 34.1919 20.2746 33.482 20.2746H31.751V23.5838ZM31.751 16.4303V19.2753H33.5039C33.9189 19.2753 34.2684 19.1333 34.5414 18.8548C34.8199 18.5763 34.9619 18.2378 34.9619 17.8555C34.9619 17.4787 34.8199 17.1456 34.5414 16.8672C34.2684 16.5777 33.9243 16.4358 33.5039 16.4358H31.751V16.4303Z" fill="#3C4043"/>
<path d="M38.7733 17.8173C39.5487 17.8173 40.1603 18.0248 40.6081 18.4398C41.0558 18.8548 41.2797 19.4227 41.2797 20.1436V23.5838H40.2804V22.8084H40.2367C39.8053 23.4473 39.2265 23.764 38.5057 23.764C37.8887 23.764 37.3754 23.5838 36.9604 23.2179C36.5453 22.8521 36.3378 22.3988 36.3378 21.8527C36.3378 21.2739 36.5563 20.8152 36.9931 20.4767C37.43 20.1326 38.0143 19.9634 38.7405 19.9634C39.363 19.9634 39.8763 20.078 40.275 20.3074V20.0671C40.275 19.7012 40.133 19.3954 39.8436 19.1388C39.5542 18.8821 39.2156 18.7565 38.8279 18.7565C38.2436 18.7565 37.7794 19.0023 37.4409 19.4992L36.518 18.9204C37.0259 18.1832 37.7794 17.8173 38.7733 17.8173ZM37.419 21.8691C37.419 22.1422 37.5337 22.3715 37.7685 22.5517C37.9979 22.7319 38.2709 22.8247 38.5822 22.8247C39.0245 22.8247 39.4176 22.6609 39.7617 22.3333C40.1057 22.0056 40.2804 21.6234 40.2804 21.1811C39.9528 20.9244 39.4996 20.7934 38.9153 20.7934C38.4893 20.7934 38.1344 20.8971 37.8504 21.0992C37.561 21.3121 37.419 21.5688 37.419 21.8691Z" fill="#3C4043"/>
<path d="M46.9807 17.9976L43.4859 26.0357H42.4047L43.7043 23.2234L41.3999 17.9976H42.5412L44.2012 22.0057H44.2231L45.8394 17.9976H46.9807Z" fill="#3C4043"/>
<path d="M27.5806 19.6139C27.5806 19.272 27.55 18.9449 27.4933 18.6304H23.0985V20.4324L25.6295 20.433C25.5269 21.0326 25.1965 21.5437 24.6903 21.8844V23.0536H26.1969C27.0766 22.2394 27.5806 21.0358 27.5806 19.6139Z" fill="#4285F4"/>
<path d="M24.6908 21.8845C24.2715 22.1673 23.7314 22.3328 23.0996 22.3328C21.8792 22.3328 20.8438 21.5104 20.473 20.4019H18.9189V21.6076C19.6889 23.1355 21.2714 24.184 23.0996 24.184C24.3632 24.184 25.4248 23.7684 26.1974 23.0531L24.6908 21.8845Z" fill="#34A853"/>
<path d="M20.3266 19.5074C20.3266 19.1961 20.3785 18.8952 20.473 18.6124V17.4067H18.9189C18.6005 18.0385 18.4214 18.7516 18.4214 19.5074C18.4214 20.2631 18.6011 20.9763 18.9189 21.6081L20.473 20.4024C20.3785 20.1195 20.3266 19.8186 20.3266 19.5074Z" fill="#FABB05"/>
<path d="M23.0996 16.6815C23.7893 16.6815 24.4069 16.919 24.8945 17.3832L26.2297 16.0491C25.4187 15.2939 24.3616 14.8303 23.0996 14.8303C21.2719 14.8303 19.6888 15.8788 18.9189 17.4067L20.473 18.6124C20.8438 17.5039 21.8792 16.6815 23.0996 16.6815Z" fill="#E94235"/>
</g>
<defs>
<filter id="filter0_dd_83_1447" x="0.268746" y="0.263463" width="64.9911" height="48.4071" filterUnits="userSpaceOnUse" color-interpolation-filters="sRGB">
<feFlood flood-opacity="0" result="BackgroundImageFix"/>
<feColorMatrix in="SourceAlpha" type="matrix" values="0 0 0 0 0 0 0 0 0 0 0 0 0 0 0 0 0 0 127 0" result="hardAlpha"/>
<feOffset dy="0.448214"/>
<feGaussianBlur stdDeviation="2.24107"/>
<feColorMatrix type="matrix" values="0 0 0 0 0.717647 0 0 0 0 0.717647 0 0 0 0 0.717647 0 0 0 0.08 0"/>
<feBlend mode="normal" in2="BackgroundImageFix" result="effect1_dropShadow_83_1447"/>
<feColorMatrix in="SourceAlpha" type="matrix" values="0 0 0 0 0 0 0 0 0 0 0 0 0 0 0 0 0 0 127 0" result="hardAlpha"/>
<feOffset dy="4.48214"/>
<feGaussianBlur stdDeviation="4.48214"/>
<feColorMatrix type="matrix" values="0 0 0 0 0.717647 0 0 0 0 0.717647 0 0 0 0 0.717647 0 0 0 0.08 0"/>
<feBlend mode="normal" in2="effect1_dropShadow_83_1447" result="effect2_dropShadow_83_1447"/>
<feBlend mode="normal" in="SourceGraphic" in2="effect2_dropShadow_83_1447" result="shape"/>
</filter>
</defs>
</svg>
