<svg width="66" height="49" viewBox="0 0 66 49" fill="none" xmlns="http://www.w3.org/2000/svg">
<g filter="url(#filter0_dd_83_1441)">
<rect x="9.61429" y="4.96973" width="46.6143" height="30.0304" rx="5.37857" fill="white"/>
<rect x="9.50223" y="4.85767" width="46.8384" height="30.2545" rx="5.49062" stroke="#D6DCE5" stroke-width="0.224107"/>
<path d="M36.2699 13.8181H29.4066V26.1516H36.2699V13.8181Z" fill="#FF5F00"/>
<path d="M29.8424 19.9849C29.8413 18.7971 30.1105 17.6246 30.6295 16.5562C31.1486 15.4878 31.9039 14.5515 32.8383 13.8181C31.6812 12.9086 30.2915 12.343 28.8281 12.1859C27.3648 12.0288 25.8867 12.2867 24.5629 12.9299C23.2392 13.5731 22.1231 14.5759 21.3422 15.8234C20.5614 17.071 20.1473 18.5131 20.1473 19.9849C20.1473 21.4566 20.5614 22.8987 21.3422 24.1463C22.1231 25.3939 23.2392 26.3966 24.5629 27.0398C25.8867 27.6831 27.3648 27.9409 28.8281 27.7838C30.2915 27.6267 31.6812 27.0611 32.8383 26.1516C31.9039 25.4183 31.1486 24.482 30.6296 23.4136C30.1105 22.3451 29.8414 21.1727 29.8424 19.9849Z" fill="#EB001B"/>
<path d="M45.5288 19.9849C45.5289 21.4566 45.1149 22.8987 44.3341 24.1463C43.5533 25.3938 42.4372 26.3966 41.1135 27.0398C39.7897 27.6831 38.3117 27.9409 36.8484 27.7838C35.385 27.6268 33.9954 27.0611 32.8383 26.1516C33.7718 25.4175 34.5266 24.4811 35.0455 23.4128C35.5645 22.3446 35.8341 21.1725 35.8341 19.9849C35.8341 18.7972 35.5645 17.6251 35.0455 16.5569C34.5266 15.4887 33.7718 14.5522 32.8383 13.8181C33.9954 12.9086 35.385 12.343 36.8484 12.1859C38.3117 12.0288 39.7897 12.2867 41.1135 12.9299C42.4372 13.5732 43.5533 14.5759 44.3341 15.8235C45.1149 17.071 45.5289 18.5131 45.5288 19.9849Z" fill="#F79E1B"/>
<path d="M44.7805 24.8453V24.5928H44.8823V24.5414H44.623V24.5928H44.7249V24.8453H44.7805ZM45.2839 24.8453V24.5409H45.2045L45.113 24.7503L45.0216 24.5409H44.9421V24.8453H44.9982V24.6157L45.0839 24.8137H45.1421L45.2278 24.6152V24.8453H45.2839Z" fill="#F79E1B"/>
</g>
<defs>
<filter id="filter0_dd_83_1441" x="0.425897" y="0.263463" width="64.9911" height="48.4071" filterUnits="userSpaceOnUse" color-interpolation-filters="sRGB">
<feFlood flood-opacity="0" result="BackgroundImageFix"/>
<feColorMatrix in="SourceAlpha" type="matrix" values="0 0 0 0 0 0 0 0 0 0 0 0 0 0 0 0 0 0 127 0" result="hardAlpha"/>
<feOffset dy="0.448214"/>
<feGaussianBlur stdDeviation="2.24107"/>
<feColorMatrix type="matrix" values="0 0 0 0 0.717647 0 0 0 0 0.717647 0 0 0 0 0.717647 0 0 0 0.08 0"/>
<feBlend mode="normal" in2="BackgroundImageFix" result="effect1_dropShadow_83_1441"/>
<feColorMatrix in="SourceAlpha" type="matrix" values="0 0 0 0 0 0 0 0 0 0 0 0 0 0 0 0 0 0 127 0" result="hardAlpha"/>
<feOffset dy="4.48214"/>
<feGaussianBlur stdDeviation="4.48214"/>
<feColorMatrix type="matrix" values="0 0 0 0 0.717647 0 0 0 0 0.717647 0 0 0 0 0.717647 0 0 0 0.08 0"/>
<feBlend mode="normal" in2="effect1_dropShadow_83_1441" result="effect2_dropShadow_83_1441"/>
<feBlend mode="normal" in="SourceGraphic" in2="effect2_dropShadow_83_1441" result="shape"/>
</filter>
</defs>
</svg>
