<svg width="66" height="49" viewBox="0 0 66 49" fill="none" xmlns="http://www.w3.org/2000/svg">
<g filter="url(#filter0_dd_83_1443)">
<rect x="9.22857" y="4.96973" width="46.6143" height="30.0304" rx="5.37857" fill="white"/>
<rect x="9.11652" y="4.85767" width="46.8384" height="30.2545" rx="5.49062" stroke="#D6DCE5" stroke-width="0.224107"/>
<path fill-rule="evenodd" clip-rule="evenodd" d="M19.4257 15.6157H16.7382C16.5543 15.6157 16.3979 15.7494 16.3692 15.9308L15.2823 22.8216C15.2607 22.9576 15.366 23.0801 15.5039 23.0801H16.7869C16.9709 23.0801 17.1273 22.9465 17.1559 22.7647L17.4491 20.9061C17.4774 20.7241 17.6342 20.5907 17.8177 20.5907H18.6685C20.4388 20.5907 21.4605 19.7341 21.7274 18.0366C21.8477 17.294 21.7325 16.7105 21.3846 16.3018C21.0028 15.8532 20.3252 15.6157 19.4257 15.6157ZM19.7358 18.1325C19.5888 19.0967 18.852 19.0967 18.1396 19.0967H17.734L18.0185 17.2959C18.0354 17.1871 18.1297 17.1069 18.2398 17.1069H18.4256C18.9109 17.1069 19.3688 17.1069 19.6054 17.3835C19.7463 17.5486 19.7896 17.7937 19.7358 18.1325ZM27.4593 18.1016H26.1723C26.0627 18.1016 25.9679 18.1817 25.951 18.2907L25.8941 18.6505L25.8041 18.5201C25.5255 18.1157 24.9043 17.9806 24.2841 17.9806C22.8619 17.9806 21.6472 19.0576 21.4107 20.5685C21.2877 21.322 21.4625 22.0426 21.89 22.5452C22.2823 23.0072 22.8435 23.1998 23.5111 23.1998C24.6569 23.1998 25.2925 22.463 25.2925 22.463L25.235 22.8207C25.2134 22.9574 25.3187 23.08 25.4558 23.08H26.6151C26.7995 23.08 26.955 22.9463 26.9841 22.7645L27.6797 18.3601C27.7017 18.2247 27.5968 18.1016 27.4593 18.1016ZM25.6653 20.6061C25.5411 21.3413 24.9575 21.8348 24.2134 21.8348C23.8397 21.8348 23.5409 21.7149 23.3492 21.4878C23.159 21.2624 23.0866 20.9412 23.1472 20.5838C23.2632 19.8548 23.8566 19.3453 24.5895 19.3453C24.9548 19.3453 25.252 19.4666 25.4476 19.6957C25.6437 19.9272 25.7215 20.2501 25.6653 20.6061ZM33.0202 18.1014H34.3136C34.4947 18.1014 34.6003 18.3045 34.4974 18.453L30.196 24.6612C30.1264 24.7617 30.0116 24.8216 29.8891 24.8216H28.5973C28.4155 24.8216 28.3093 24.6168 28.4146 24.4679L29.7539 22.5776L28.3295 18.3976C28.2802 18.2523 28.3875 18.1014 28.5421 18.1014H29.8129C29.978 18.1014 30.1236 18.2098 30.1713 18.3678L30.9273 20.8923L32.7111 18.2652C32.7809 18.1627 32.8969 18.1014 33.0202 18.1014Z" fill="#253B80"/>
<path fill-rule="evenodd" clip-rule="evenodd" d="M47.0428 22.821L48.1457 15.8042C48.1626 15.6953 48.257 15.6151 48.3667 15.6147H49.6084C49.7455 15.6147 49.8508 15.7377 49.8291 15.8737L48.7415 22.764C48.7131 22.9459 48.5567 23.0795 48.3725 23.0795H47.2635C47.1264 23.0795 47.0211 22.957 47.0428 22.821ZM38.5958 15.6151H35.9079C35.7244 15.6151 35.568 15.7488 35.5392 15.9302L34.4523 22.821C34.4307 22.957 34.5359 23.0795 34.6732 23.0795H36.0524C36.1806 23.0795 36.2903 22.9861 36.3103 22.8588L36.6187 20.9055C36.6471 20.7235 36.8038 20.5901 36.9873 20.5901H37.8377C39.6084 20.5901 40.6299 19.7334 40.897 18.036C41.0176 17.2934 40.9017 16.7099 40.554 16.3012C40.1723 15.8526 39.4953 15.6151 38.5958 15.6151ZM38.9059 18.1319C38.7593 19.0961 38.0224 19.0961 37.3096 19.0961H36.9044L37.1894 17.2952C37.2063 17.1865 37.2998 17.1063 37.4101 17.1063H37.596C38.081 17.1063 38.5393 17.1063 38.7757 17.3829C38.9168 17.548 38.9597 17.7931 38.9059 18.1319ZM46.6287 18.1009H45.3426C45.2321 18.1009 45.1382 18.1811 45.1217 18.2901L45.0647 18.6499L44.9744 18.5195C44.6958 18.1151 44.0749 17.98 43.4548 17.98C42.0325 17.98 40.8183 19.057 40.5817 20.5679C40.4591 21.3214 40.6331 22.042 41.0607 22.5446C41.4537 23.0066 42.0141 23.1992 42.6817 23.1992C43.8276 23.1992 44.463 22.4624 44.463 22.4624L44.4057 22.8201C44.3841 22.9568 44.4894 23.0793 44.6274 23.0793H45.7862C45.9697 23.0793 46.126 22.9457 46.1548 22.7639L46.8507 18.3595C46.872 18.224 46.7667 18.1009 46.6287 18.1009ZM44.8349 20.6055C44.7114 21.3407 44.1271 21.8342 43.3828 21.8342C43.0098 21.8342 42.7105 21.7143 42.5186 21.4872C42.3284 21.2617 42.2569 20.9406 42.3167 20.5831C42.4333 19.8542 43.026 19.3447 43.7589 19.3447C44.1244 19.3447 44.4213 19.466 44.6172 19.6951C44.814 19.9265 44.8918 20.2495 44.8349 20.6055Z" fill="#179BD7"/>
</g>
<defs>
<filter id="filter0_dd_83_1443" x="0.0401764" y="0.263463" width="64.9911" height="48.4071" filterUnits="userSpaceOnUse" color-interpolation-filters="sRGB">
<feFlood flood-opacity="0" result="BackgroundImageFix"/>
<feColorMatrix in="SourceAlpha" type="matrix" values="0 0 0 0 0 0 0 0 0 0 0 0 0 0 0 0 0 0 127 0" result="hardAlpha"/>
<feOffset dy="0.448214"/>
<feGaussianBlur stdDeviation="2.24107"/>
<feColorMatrix type="matrix" values="0 0 0 0 0.717647 0 0 0 0 0.717647 0 0 0 0 0.717647 0 0 0 0.08 0"/>
<feBlend mode="normal" in2="BackgroundImageFix" result="effect1_dropShadow_83_1443"/>
<feColorMatrix in="SourceAlpha" type="matrix" values="0 0 0 0 0 0 0 0 0 0 0 0 0 0 0 0 0 0 127 0" result="hardAlpha"/>
<feOffset dy="4.48214"/>
<feGaussianBlur stdDeviation="4.48214"/>
<feColorMatrix type="matrix" values="0 0 0 0 0.717647 0 0 0 0 0.717647 0 0 0 0 0.717647 0 0 0 0.08 0"/>
<feBlend mode="normal" in2="effect1_dropShadow_83_1443" result="effect2_dropShadow_83_1443"/>
<feBlend mode="normal" in="SourceGraphic" in2="effect2_dropShadow_83_1443" result="shape"/>
</filter>
</defs>
</svg>
