<svg width="66" height="49" viewBox="0 0 66 49" fill="none" xmlns="http://www.w3.org/2000/svg">
<g filter="url(#filter0_dd_83_1439)">
<rect x="10" y="4.96973" width="46.6143" height="30.0304" rx="5.37857" fill="white"/>
<rect x="9.88795" y="4.85767" width="46.8384" height="30.2545" rx="5.49062" stroke="#D6DCE5" stroke-width="0.224107"/>
<path d="M33.0222 15.091L30.8479 25.2545H28.2188L30.3934 15.091H33.0222ZM44.0838 21.6536L45.468 17.8368L46.2645 21.6536H44.0838ZM47.0173 25.2545H49.4492L47.327 15.091H45.0823C44.5779 15.091 44.1524 15.3843 43.9629 15.8366L40.0184 25.2545H42.7794L43.3276 23.7368H46.7007L47.0173 25.2545ZM40.1555 21.936C40.1667 19.2535 36.4458 19.1059 36.4716 17.9076C36.4793 17.5425 36.827 17.1552 37.5865 17.0558C37.9638 17.0066 39.0013 16.9689 40.1793 17.511L40.6406 15.3557C40.0078 15.126 39.1936 14.905 38.181 14.905C35.5824 14.905 33.7533 16.2867 33.7379 18.265C33.7215 19.728 35.0436 20.5444 36.0399 21.0308C37.0641 21.5291 37.4083 21.8482 37.4038 22.2937C37.397 22.976 36.5867 23.2765 35.8308 23.2884C34.5087 23.3093 33.7414 22.9316 33.1299 22.6466L32.6535 24.8736C33.2676 25.1558 34.4015 25.4009 35.5779 25.4134C38.3396 25.4134 40.1465 24.0488 40.1555 21.936ZM29.2652 15.091L25.0055 25.2545H22.2259L20.1298 17.1433C20.0024 16.6437 19.8918 16.461 19.5048 16.2503C18.8733 15.9077 17.8295 15.5857 16.911 15.3863L16.9738 15.091H21.4474C22.0174 15.091 22.5305 15.4705 22.6598 16.1271L23.7671 22.0087L26.503 15.091H29.2652Z" fill="#1434CB"/>
</g>
<defs>
<filter id="filter0_dd_83_1439" x="0.811608" y="0.263463" width="64.9911" height="48.4071" filterUnits="userSpaceOnUse" color-interpolation-filters="sRGB">
<feFlood flood-opacity="0" result="BackgroundImageFix"/>
<feColorMatrix in="SourceAlpha" type="matrix" values="0 0 0 0 0 0 0 0 0 0 0 0 0 0 0 0 0 0 127 0" result="hardAlpha"/>
<feOffset dy="0.448214"/>
<feGaussianBlur stdDeviation="2.24107"/>
<feColorMatrix type="matrix" values="0 0 0 0 0.717647 0 0 0 0 0.717647 0 0 0 0 0.717647 0 0 0 0.08 0"/>
<feBlend mode="normal" in2="BackgroundImageFix" result="effect1_dropShadow_83_1439"/>
<feColorMatrix in="SourceAlpha" type="matrix" values="0 0 0 0 0 0 0 0 0 0 0 0 0 0 0 0 0 0 127 0" result="hardAlpha"/>
<feOffset dy="4.48214"/>
<feGaussianBlur stdDeviation="4.48214"/>
<feColorMatrix type="matrix" values="0 0 0 0 0.717647 0 0 0 0 0.717647 0 0 0 0 0.717647 0 0 0 0.08 0"/>
<feBlend mode="normal" in2="effect1_dropShadow_83_1439" result="effect2_dropShadow_83_1439"/>
<feBlend mode="normal" in="SourceGraphic" in2="effect2_dropShadow_83_1439" result="shape"/>
</filter>
</defs>
</svg>
